HIERARCHY
ROOT hip
{
  OFFSET 0 90.174 2.4664
  CHANNELS 6 Xposition Yposition Zposition Zrotation Xrotation Yrotation
  JOINT abdomen
  {
    OFFSET 0 -1.186 -1.5018
    CHANNELS 6 Xposition Yposition Zposition Zrotation Xrotation Yrotation
    JOINT abdomen2
    {
      OFFSET 0 9.964 0.2134
      CHANNELS 6 Xposition Yposition Zposition Zrotation Xrotation Yrotation
      JOINT chest
      {
        OFFSET 0 13.134 -3.2573
        CHANNELS 6 Xposition Yposition Zposition Zrotation Xrotation Yrotation
        JOINT neck
        {
          OFFSET 0 20.686 -1.6905
          CHANNELS 6 Xposition Yposition Zposition Zrotation Xrotation Yrotation
          JOINT head
          {
            OFFSET 0 7.238 -0.1237
            CHANNELS 6 Xposition Yposition Zposition Zrotation Xrotation Yrotation
            End Site
            {
              OFFSET 0 0 0
            }
          }
        }
        JOINT lCollar
        {
          OFFSET 1.7069 20.075 5.0056
          CHANNELS 6 Xposition Yposition Zposition Zrotation Xrotation Yrotation
          JOINT lShldr
          {
            OFFSET 13.6458 -0.047 -4.849
            CHANNELS 6 Xposition Yposition Zposition Zrotation Xrotation Yrotation
            JOINT lForeArm
            {
              OFFSET 28.3255 -0.9759 2.2888
              CHANNELS 6 Xposition Yposition Zposition Zrotation Xrotation Yrotation
              JOINT lHand
              {
                OFFSET 22.1583 -0.53 10.8316
                CHANNELS 6 Xposition Yposition Zposition Zrotation Xrotation Yrotation
                JOINT lThumb1
                {
                  OFFSET 0.786 0.112 2.5817
                  CHANNELS 6 Xposition Yposition Zposition Zrotation Xrotation Yrotation
                  JOINT lThumb2
                  {
                    OFFSET 0.3601 -0.878 4.2331
                    CHANNELS 6 Xposition Yposition Zposition Zrotation Xrotation Yrotation
                    JOINT lThumb2_End
                    {
                      OFFSET 1.8127 -1.216 2.2227
                      CHANNELS 6 Xposition Yposition Zposition Zrotation Xrotation Yrotation
                      End Site
                      {
                        OFFSET 0.0181 -0.0122 0.0222
                      }
                    }
                  }
                }
                JOINT lCarpal1
                {
                  OFFSET 0.9571 1.114 1.7695
                  CHANNELS 6 Xposition Yposition Zposition Zrotation Xrotation Yrotation
                  JOINT lIndex1
                  {
                    OFFSET 4.1246 0.487 4.1451
                    CHANNELS 6 Xposition Yposition Zposition Zrotation Xrotation Yrotation
                    JOINT lIndex2
                    {
                      OFFSET 3.4052 -1.454 2.7682
                      CHANNELS 6 Xposition Yposition Zposition Zrotation Xrotation Yrotation
                      JOINT lIndex2_End
                      {
                        OFFSET 1.4531 -1.795 1.2713
                        CHANNELS 6 Xposition Yposition Zposition Zrotation Xrotation Yrotation
                        End Site
                        {
                          OFFSET 0.0145 -0.0179 0.0127
                        }
                      }
                    }
                  }
                  JOINT lMid1
                  {
                    OFFSET 5.6954 0.21 2.1184
                    CHANNELS 6 Xposition Yposition Zposition Zrotation Xrotation Yrotation
                    JOINT lMid2
                    {
                      OFFSET 3.9766 -1.54 2.3863
                      CHANNELS 6 Xposition Yposition Zposition Zrotation Xrotation Yrotation
                      JOINT lMid2_End
                      {
                        OFFSET 1.4042 -1.926 1.125
                        CHANNELS 6 Xposition Yposition Zposition Zrotation Xrotation Yrotation
                        End Site
                        {
                          OFFSET 0.014 -0.0193 0.0113
                        }
                      }
                    }
                  }
                }
                JOINT lCarpal2
                {
                  OFFSET 2.0956 0.66 -0.3894
                  CHANNELS 6 Xposition Yposition Zposition Zrotation Xrotation Yrotation
                  JOINT lRing1
                  {
                    OFFSET 5.0395 -0.09 2.4971
                    CHANNELS 6 Xposition Yposition Zposition Zrotation Xrotation Yrotation
                    JOINT lRing2
                    {
                      OFFSET 3.7921 -1.552 1.4806
                      CHANNELS 6 Xposition Yposition Zposition Zrotation Xrotation Yrotation
                      JOINT lRing2_End
                      {
                        OFFSET 1.4655 -1.808 0.9609
                        CHANNELS 6 Xposition Yposition Zposition Zrotation Xrotation Yrotation
                        End Site
                        {
                          OFFSET 0.0147 -0.0181 0.0096
                        }
                      }
                    }
                  }
                  JOINT lPinky1
                  {
                    OFFSET 4.9141 -1.269 0.3591
                    CHANNELS 6 Xposition Yposition Zposition Zrotation Xrotation Yrotation
                    JOINT lPinky2
                    {
                      OFFSET 3.1477 -1.685 0.8462
                      CHANNELS 6 Xposition Yposition Zposition Zrotation Xrotation Yrotation
                      JOINT lPinky2_End
                      {
                        OFFSET 0.8055 -1.585 0.7955
                        CHANNELS 6 Xposition Yposition Zposition Zrotation Xrotation Yrotation
                        End Site
                        {
                          OFFSET 0.0081 -0.0158 0.008
                        }
                      }
                    }
                  }
                }
              }
            }
          }
        }
        JOINT rCollar
        {
          OFFSET -1.7069 20.075 5.0056
          CHANNELS 6 Xposition Yposition Zposition Zrotation Xrotation Yrotation
          JOINT rShldr
          {
            OFFSET -13.6458 -0.047 -4.849
            CHANNELS 6 Xposition Yposition Zposition Zrotation Xrotation Yrotation
            JOINT rForeArm
            {
              OFFSET -28.3255 -0.9759 2.2888
              CHANNELS 6 Xposition Yposition Zposition Zrotation Xrotation Yrotation
              JOINT rHand
              {
                OFFSET -22.1583 -0.53 10.8316
                CHANNELS 6 Xposition Yposition Zposition Zrotation Xrotation Yrotation
                JOINT rThumb1
                {
                  OFFSET -0.786 0.112 2.5817
                  CHANNELS 6 Xposition Yposition Zposition Zrotation Xrotation Yrotation
                  JOINT rThumb2
                  {
                    OFFSET -0.3601 -0.878 4.2331
                    CHANNELS 6 Xposition Yposition Zposition Zrotation Xrotation Yrotation
                    JOINT rThumb2_End
                    {
                      OFFSET -1.8127 -1.216 2.2227
                      CHANNELS 6 Xposition Yposition Zposition Zrotation Xrotation Yrotation
                      End Site
                      {
                        OFFSET -0.0181 -0.0122 0.0222
                      }
                    }
                  }
                }
                JOINT rCarpal1
                {
                  OFFSET -0.9571 1.114 1.7695
                  CHANNELS 6 Xposition Yposition Zposition Zrotation Xrotation Yrotation
                  JOINT rIndex1
                  {
                    OFFSET -4.1246 0.487 4.1451
                    CHANNELS 6 Xposition Yposition Zposition Zrotation Xrotation Yrotation
                    JOINT rIndex2
                    {
                      OFFSET -3.4052 -1.454 2.7682
                      CHANNELS 6 Xposition Yposition Zposition Zrotation Xrotation Yrotation
                      JOINT rIndex2_End
                      {
                        OFFSET -1.4531 -1.795 1.2713
                        CHANNELS 6 Xposition Yposition Zposition Zrotation Xrotation Yrotation
                        End Site
                        {
                          OFFSET -0.0145 -0.018 0.0127
                        }
                      }
                    }
                  }
                  JOINT rMid1
                  {
                    OFFSET -5.6954 0.21 2.1184
                    CHANNELS 6 Xposition Yposition Zposition Zrotation Xrotation Yrotation
                    JOINT rMid2
                    {
                      OFFSET -3.9766 -1.54 2.3863
                      CHANNELS 6 Xposition Yposition Zposition Zrotation Xrotation Yrotation
                      JOINT rMid2_End
                      {
                        OFFSET -1.4042 -1.926 1.125
                        CHANNELS 6 Xposition Yposition Zposition Zrotation Xrotation Yrotation
                        End Site
                        {
                          OFFSET -0.014 -0.0193 0.0113
                        }
                      }
                    }
                  }
                }
                JOINT rCarpal2
                {
                  OFFSET -2.0956 0.66 -0.3894
                  CHANNELS 6 Xposition Yposition Zposition Zrotation Xrotation Yrotation
                  JOINT rRing1
                  {
                    OFFSET -5.0395 -0.09 2.4971
                    CHANNELS 6 Xposition Yposition Zposition Zrotation Xrotation Yrotation
                    JOINT rRing2
                    {
                      OFFSET -3.7921 -1.552 1.4806
                      CHANNELS 6 Xposition Yposition Zposition Zrotation Xrotation Yrotation
                      JOINT rRing2_End
                      {
                        OFFSET -1.4655 -1.808 0.9609
                        CHANNELS 6 Xposition Yposition Zposition Zrotation Xrotation Yrotation
                        End Site
                        {
                          OFFSET -0.0147 -0.0181 0.0096
                        }
                      }
                    }
                  }
                  JOINT rPinky1
                  {
                    OFFSET -4.9141 -1.269 0.3592
                    CHANNELS 6 Xposition Yposition Zposition Zrotation Xrotation Yrotation
                    JOINT rPinky2
                    {
                      OFFSET -3.1477 -1.685 0.8462
                      CHANNELS 6 Xposition Yposition Zposition Zrotation Xrotation Yrotation
                      JOINT rPinky2_End
                      {
                        OFFSET -0.8055 -1.585 0.7955
                        CHANNELS 6 Xposition Yposition Zposition Zrotation Xrotation Yrotation
                        End Site
                        {
                          OFFSET -0.0081 -0.0158 0.008
                        }
                      }
                    }
                  }
                }
              }
            }
          }
        }
      }
    }
  }
  JOINT lThigh
  {
    OFFSET 8.367 -8.2066 0.5982
    CHANNELS 6 Xposition Yposition Zposition Zrotation Xrotation Yrotation
    JOINT lShin
    {
      OFFSET 2.1923 -43.463 -0.4932
      CHANNELS 6 Xposition Yposition Zposition Zrotation Xrotation Yrotation
      JOINT lFoot
      {
        OFFSET 0.7333 -45.8593 -2.6451
        CHANNELS 6 Xposition Yposition Zposition Zrotation Xrotation Yrotation
        End Site
        {
          OFFSET 2.6618 -4.2699 12.3931
        }
      }
    }
  }
  JOINT rThigh
  {
    OFFSET -8.367 -8.2066 0.5982
    CHANNELS 6 Xposition Yposition Zposition Zrotation Xrotation Yrotation
    JOINT rShin
    {
      OFFSET -2.1923 -43.463 -0.4931
      CHANNELS 6 Xposition Yposition Zposition Zrotation Xrotation Yrotation
      JOINT rFoot
      {
        OFFSET -0.7333 -45.8593 -2.6451
        CHANNELS 6 Xposition Yposition Zposition Zrotation Xrotation Yrotation
        End Site
        {
          OFFSET -2.6618 -4.2699 12.3931
        }
      }
    }
  }
}
MOTION
Frames:	4
Frame Time:	0.0333333
0 90.174 2.4664 0 0 -0 0 -1.186 -1.5018 0 0 -0 0 9.964 0.2134 0 0 -0 0 13.134 -3.2573 0 0 -0 0 20.686 -1.6905 0 0 -0 0 7.238 -0.1237 0 0 -0 1.7069 20.075 5.0056 0 0 -0 13.6458 -0.047 -4.849 1.66051 0.0835086 5.75766 28.3255 -0.9759 2.2888 -0.0175111 0.895433 15.7816 22.1583 -0.53 10.8316 7.95139e-016 -1.98785e-016 -0 0.786 0.112 2.5817 5.46658e-016 -3.97569e-016 -0 0.3601 -0.878 4.2331 5.96354e-016 0 -0 1.8127 -1.216 2.2227 3.97569e-016 1.98785e-016 9.54166e-015 0.9571 1.114 1.7695 1.49089e-016 -3.97569e-016 -0 4.1246 0.487 4.1451 6.4605e-016 0 3.18055e-015 3.4052 -1.454 2.7682 5.96354e-016 0 3.18055e-015 1.4531 -1.795 1.2713 8.94531e-016 -1.98785e-016 6.36111e-015 5.6954 0.21 2.1184 6.4605e-016 0 3.18055e-015 3.9766 -1.54 2.3863 5.96354e-016 0 3.18055e-015 1.4042 -1.926 1.125 8.94531e-016 -1.98785e-016 6.36111e-015 2.0956 0.66 -0.3894 1.49089e-016 -3.97569e-016 -0 5.0395 -0.09 2.4971 6.4605e-016 0 3.18055e-015 3.7921 -1.552 1.4806 5.96354e-016 0 3.18055e-015 1.4655 -1.808 0.9609 8.94531e-016 -1.98785e-016 6.36111e-015 4.9141 -1.269 0.3591 6.4605e-016 0 3.18055e-015 3.1477 -1.685 0.8462 5.96354e-016 0 3.18055e-015 0.8055 -1.585 0.7955 8.94531e-016 -1.98785e-016 6.36111e-015 -1.7069 20.075 5.0056 0 0 -0 -13.6458 -0.047 -4.849 -1.4496 0.0636048 -5.0245 -28.3255 -0.9759 2.2888 -1.74811 1.20616 -16.8394 -22.1583 -0.53 10.8316 -1.19271e-015 1.98785e-016 -3.18055e-015 -0.786 0.112 2.5817 -3.97569e-016 1.98785e-016 -3.18055e-015 -0.3601 -0.878 4.2331 -2.98177e-016 1.98785e-016 -3.18055e-015 -1.8127 -1.216 2.2227 -2.98177e-016 3.97569e-016 -0 -0.9571 1.114 1.7695 4.96962e-016 0 -6.36111e-015 -4.1246 0.487 4.1451 -9.93923e-017 3.97569e-016 -0 -3.4052 -1.454 2.7682 -8.94531e-016 5.96354e-016 -0 -1.4531 -1.795 1.2713 -3.97569e-016 3.97569e-016 -0 -5.6954 0.21 2.1184 -9.93923e-017 3.97569e-016 -0 -3.9766 -1.54 2.3863 -8.94531e-016 5.96354e-016 -0 -1.4042 -1.926 1.125 -3.97569e-016 3.97569e-016 -0 -2.0956 0.66 -0.3894 4.96962e-016 0 -6.36111e-015 -5.0395 -0.09 2.4971 -9.93923e-017 3.97569e-016 -0 -3.7921 -1.552 1.4806 -8.94531e-016 5.96354e-016 -0 -1.4655 -1.808 0.9609 -3.97569e-016 3.97569e-016 -0 -4.9141 -1.269 0.3592 -9.93923e-017 3.97569e-016 -0 -3.1477 -1.685 0.8462 -8.94531e-016 5.96354e-016 -0 -0.8055 -1.585 0.7955 -3.97569e-016 3.97569e-016 -0 8.367 -8.2066 0.5982 -4.66115 -1.03232 0.120763 2.1923 -43.463 -0.4932 0.00990601 1.55097 0.177175 0.7333 -45.8593 -2.6451 4.65196 -0.54114 -0.255042 -8.367 -8.2066 0.5982 4.66115 -1.03222 -0.120763 -2.1923 -43.463 -0.4931 -0.00990459 1.5509 -0.177176 -0.7333 -45.8593 -2.6451 -4.65196 -0.541171 0.255041 
0.0733186 9.23608 -7.32055 0.645985 -48.0242 -1.50211 -2.77556e-017 -1.186 -1.5018 -0.542788 6.93576 -0.821034 -1.11022e-016 9.964 0.2134 -0.995624 13.8782 -1.59302 0 13.134 -3.2573 -0.995624 13.8782 -1.59302 0 20.686 -1.6905 1.21957 6.33538 -0.296928 4.44089e-016 7.238 -0.1237 -0.812444 -33.422 -2.62663 1.7069 20.075 5.0056 5.52096 7.82452 -11.3208 13.6458 -0.047 -4.849 -33.4415 9.07717 -53.1445 28.3255 -0.9759 2.2888 26.6228 -64.1034 -15.758 22.1583 -0.53 10.8316 -67.2931 -20.9674 10.794 0.786 0.112 2.5817 3.18055e-015 -1.19271e-015 -3.97569e-016 0.3601 -0.878 4.2331 -3.18055e-015 3.97569e-016 -7.95139e-016 1.8127 -1.216 2.2227 -1.27222e-014 0 7.95139e-016 0.9571 1.114 1.7695 3.18055e-015 -3.97569e-016 1.19271e-015 4.1246 0.487 4.1451 0 3.97569e-016 -0 3.4052 -1.454 2.7682 3.18055e-015 1.19271e-015 -7.95139e-016 1.4531 -1.795 1.2713 1.10348e-032 3.97569e-016 -1.59028e-015 5.6954 0.21 2.1184 0 3.97569e-016 -0 3.9766 -1.54 2.3863 3.18055e-015 1.19271e-015 -7.95139e-016 1.4042 -1.926 1.125 1.10348e-032 3.97569e-016 -1.59028e-015 2.0956 0.66 -0.3894 3.18055e-015 -3.97569e-016 1.19271e-015 5.0395 -0.09 2.4971 0 3.97569e-016 -0 3.7921 -1.552 1.4806 3.18055e-015 1.19271e-015 -7.95139e-016 1.4655 -1.808 0.9609 1.10348e-032 3.97569e-016 -1.59028e-015 4.9141 -1.269 0.3591 0 3.97569e-016 -0 3.1477 -1.685 0.8462 3.18055e-015 1.19271e-015 -7.95139e-016 0.8055 -1.585 0.7955 1.10348e-032 3.97569e-016 -1.59028e-015 -1.7069 20.075 5.0056 -8.68554 6.97105 2.28869 -13.6458 -0.047 -4.849 86.3901 6.94655 -13.0175 -28.3255 -0.9759 2.2888 1.45414 -52.2065 -20.127 -22.1583 -0.53 10.8316 -33.1184 -28.9536 1.70726 -0.786 0.112 2.5817 -3.18055e-015 -1.59028e-015 -0 -0.3601 -0.878 4.2331 -3.18055e-015 -1.59028e-015 3.18055e-015 -1.8127 -1.216 2.2227 -0 -1.59028e-015 -0 -0.9571 1.114 1.7695 -3.18055e-015 1.59028e-015 -0 -4.1246 0.487 4.1451 4.41391e-032 -1.59028e-015 1.59028e-015 -3.4052 -1.454 2.7682 -0 -1.59028e-015 -0 -1.4531 -1.795 1.2713 -0 0 1.59028e-015 -5.6954 0.21 2.1184 4.41391e-032 -1.59028e-015 1.59028e-015 -3.9766 -1.54 2.3863 -0 -1.59028e-015 -0 -1.4042 -1.926 1.125 -0 0 1.59028e-015 -2.0956 0.66 -0.3894 -3.18055e-015 1.59028e-015 -0 -5.0395 -0.09 2.4971 4.41391e-032 -1.59028e-015 1.59028e-015 -3.7921 -1.552 1.4806 -0 -1.59028e-015 -0 -1.4655 -1.808 0.9609 -0 0 1.59028e-015 -4.9141 -1.269 0.3592 4.41391e-032 -1.59028e-015 1.59028e-015 -3.1477 -1.685 0.8462 -0 -1.59028e-015 -0 -0.8055 -1.585 0.7955 -0 0 1.59028e-015 8.367 -8.2066 0.5982 -11.9326 -82.1054 -30.1953 2.1923 -43.463 -0.4932 155.081 88.8071 -150.417 0.7333 -45.8593 -2.6451 -26.0686 31.2889 5.92796 -8.367 -8.2066 0.5982 14.3738 -80.7954 35.6754 -2.1923 -43.463 -0.4931 -13.2031 86.9141 8.83947 -0.7333 -45.8593 -2.6451 23.9895 37.2079 -3.22184 
0.0733186 9.23608 -7.32055 0.645985 -48.0242 -1.50211 -2.77556e-017 -1.186 -1.5018 -0.542788 6.93576 -0.821034 -1.11022e-016 9.964 0.2134 -0.995624 13.8782 -1.59302 0 13.134 -3.2573 -0.995624 13.8782 -1.59302 2.22045e-016 20.686 -1.6905 1.34916 6.31582 -0.333125 0 7.238 -0.1237 -0.812445 -33.422 -2.62663 1.7069 20.075 5.0056 5.6626 7.83059 -11.1947 13.6458 -0.047 -4.849 -33.4415 9.07718 -53.1445 28.3255 -0.9759 2.2888 25.9479 -63.8992 -16.402 22.1583 -0.53 10.8316 -67.1234 -21.0376 10.5015 0.786 0.112 2.5817 3.18055e-015 -1.59028e-015 7.95139e-016 0.3601 -0.878 4.2331 2.24363e-006 6.96684e-007 2.20816e-006 1.8127 -1.216 2.2227 -1.27222e-014 1.59028e-015 -1.98785e-015 0.9571 1.114 1.7695 3.18055e-015 -3.97569e-016 -7.95139e-016 4.1246 0.487 4.1451 6.36111e-015 -1.59028e-015 1.98785e-015 3.4052 -1.454 2.7682 2.24363e-006 6.96684e-007 2.20816e-006 1.4531 -1.795 1.2713 -6.36111e-015 7.95139e-016 -7.95139e-016 5.6954 0.21 2.1184 6.36111e-015 -1.59028e-015 1.98785e-015 3.9766 -1.54 2.3863 2.24363e-006 6.96684e-007 2.20816e-006 1.4042 -1.926 1.125 -6.36111e-015 7.95139e-016 -7.95139e-016 2.0956 0.66 -0.3894 3.18055e-015 -3.97569e-016 -7.95139e-016 5.0395 -0.09 2.4971 6.36111e-015 -1.59028e-015 1.98785e-015 3.7921 -1.552 1.4806 2.24363e-006 6.96684e-007 2.20816e-006 1.4655 -1.808 0.9609 -6.36111e-015 7.95139e-016 -7.95139e-016 4.9141 -1.269 0.3591 6.36111e-015 -1.59028e-015 1.98785e-015 3.1477 -1.685 0.8462 2.24363e-006 6.96684e-007 2.20816e-006 0.8055 -1.585 0.7955 -6.36111e-015 7.95139e-016 -7.95139e-016 -1.7069 20.075 5.0056 -8.68554 6.97105 2.28869 -13.6458 -0.047 -4.849 86.3901 6.94655 -13.0175 -28.3255 -0.9759 2.2888 1.45417 -52.2065 -20.127 -22.1583 -0.53 10.8316 -33.1184 -28.9536 1.70726 -0.786 0.112 2.5817 1.01294e-006 -6.67998e-007 -1.38065e-006 -0.3601 -0.878 4.2331 1.55967e-006 2.55475e-006 5.14577e-007 -1.8127 -1.216 2.2227 3.18055e-015 -1.11319e-014 1.27222e-014 -0.9571 1.114 1.7695 -1.32417e-031 1.59028e-015 4.77083e-015 -4.1246 0.487 4.1451 1.01294e-006 -6.67998e-007 -1.38065e-006 -3.4052 -1.454 2.7682 1.55967e-006 2.55475e-006 5.14577e-007 -1.4531 -1.795 1.2713 2.8249e-030 -1.27222e-014 1.27222e-014 -5.6954 0.21 2.1184 1.01294e-006 -6.67998e-007 -1.38065e-006 -3.9766 -1.54 2.3863 1.55967e-006 2.55475e-006 5.14577e-007 -1.4042 -1.926 1.125 2.8249e-030 -1.27222e-014 1.27222e-014 -2.0956 0.66 -0.3894 -1.32417e-031 1.59028e-015 4.77083e-015 -5.0395 -0.09 2.4971 1.01294e-006 -6.67998e-007 -1.38065e-006 -3.7921 -1.552 1.4806 1.55967e-006 2.55475e-006 5.14577e-007 -1.4655 -1.808 0.9609 2.8249e-030 -1.27222e-014 1.27222e-014 -4.9141 -1.269 0.3592 1.01294e-006 -6.67998e-007 -1.38065e-006 -3.1477 -1.685 0.8462 1.55967e-006 2.55475e-006 5.14577e-007 -0.8055 -1.585 0.7955 2.8249e-030 -1.27222e-014 1.27222e-014 8.367 -8.2066 0.5982 -11.9325 -82.1054 -30.1952 2.1923 -43.463 -0.4932 155.081 88.8072 -150.417 0.7333 -45.8593 -2.6451 -26.0686 31.2889 5.92795 -8.367 -8.2066 0.5982 14.3739 -80.7955 35.6755 -2.1923 -43.463 -0.4931 -13.2034 86.9141 8.83976 -0.7333 -45.8593 -2.6451 23.9896 37.2079 -3.22186 
0.0733187 9.23608 -7.32055 0.645984 -48.0242 -1.50211 -5.55112e-017 -1.186 -1.5018 -0.542789 6.93574 -0.821035 -5.55112e-017 9.964 0.2134 -0.995623 13.8782 -1.59302 -3.33067e-016 13.134 -3.2573 -0.995623 13.8782 -1.59302 2.22045e-016 20.686 -1.6905 1.47882 6.29598 -0.369299 4.44089e-016 7.238 -0.1237 -0.812445 -33.422 -2.62663 1.7069 20.075 5.0056 5.8043 7.83701 -11.0686 13.6458 -0.047 -4.849 -33.4414 9.07717 -53.1445 28.3255 -0.9759 2.2888 25.282 -63.6914 -17.0368 22.1583 -0.53 10.8316 -66.9537 -21.1088 10.2086 0.786 0.112 2.5817 -5.87702e-006 3.08593e-006 -6.67357e-006 0.3601 -0.878 4.2331 -3.18055e-015 -7.95139e-016 1.59028e-015 1.8127 -1.216 2.2227 3.18055e-015 -2.38542e-015 -2.78299e-015 0.9571 1.114 1.7695 0 7.95139e-016 -0 4.1246 0.487 4.1451 -5.87702e-006 3.08593e-006 -6.67357e-006 3.4052 -1.454 2.7682 -3.18055e-015 -7.95139e-016 2.38542e-015 1.4531 -1.795 1.2713 -3.18055e-015 -1.59028e-015 -0 5.6954 0.21 2.1184 -5.87702e-006 3.08593e-006 -6.67357e-006 3.9766 -1.54 2.3863 -3.18055e-015 -7.95139e-016 2.38542e-015 1.4042 -1.926 1.125 -3.18055e-015 -1.59028e-015 -0 2.0956 0.66 -0.3894 0 7.95139e-016 -0 5.0395 -0.09 2.4971 -5.87702e-006 3.08593e-006 -6.67357e-006 3.7921 -1.552 1.4806 -3.18055e-015 -7.95139e-016 2.38542e-015 1.4655 -1.808 0.9609 -3.18055e-015 -1.59028e-015 -0 4.9141 -1.269 0.3591 -5.87702e-006 3.08593e-006 -6.67357e-006 3.1477 -1.685 0.8462 -3.18055e-015 -7.95139e-016 2.38542e-015 0.8055 -1.585 0.7955 -3.18055e-015 -1.59028e-015 -0 -1.7069 20.075 5.0056 -8.68554 6.97108 2.28869 -13.6458 -0.047 -4.849 86.3901 6.94655 -13.0175 -28.3255 -0.9759 2.2888 1.45414 -52.2065 -20.127 -22.1583 -0.53 10.8316 -33.1184 -28.9536 1.70726 -0.786 0.112 2.5817 3.18055e-015 1.59028e-015 -3.18055e-015 -0.3601 -0.878 4.2331 -3.18055e-015 1.59028e-015 -4.77083e-015 -1.8127 -1.216 2.2227 -4.41391e-032 -1.59028e-015 -1.59028e-015 -0.9571 1.114 1.7695 3.18055e-015 -1.59028e-015 -3.18055e-015 -4.1246 0.487 4.1451 -6.36111e-015 -7.95139e-015 4.77083e-015 -3.4052 -1.454 2.7682 9.54166e-015 1.59028e-015 -3.18055e-015 -1.4531 -1.795 1.2713 -3.18055e-015 4.77083e-015 -0 -5.6954 0.21 2.1184 -6.36111e-015 -7.95139e-015 4.77083e-015 -3.9766 -1.54 2.3863 9.54166e-015 1.59028e-015 -3.18055e-015 -1.4042 -1.926 1.125 -3.18055e-015 4.77083e-015 -0 -2.0956 0.66 -0.3894 3.18055e-015 -1.59028e-015 -3.18055e-015 -5.0395 -0.09 2.4971 -6.36111e-015 -7.95139e-015 4.77083e-015 -3.7921 -1.552 1.4806 9.54166e-015 1.59028e-015 -3.18055e-015 -1.4655 -1.808 0.9609 -3.18055e-015 4.77083e-015 -0 -4.9141 -1.269 0.3592 -6.36111e-015 -7.95139e-015 4.77083e-015 -3.1477 -1.685 0.8462 9.54166e-015 1.59028e-015 -3.18055e-015 -0.8055 -1.585 0.7955 -3.18055e-015 4.77083e-015 -0 8.367 -8.2066 0.5982 -11.9325 -82.1054 -30.1953 2.1923 -43.463 -0.4932 155.081 88.8072 -150.417 0.7333 -45.8593 -2.6451 -26.0686 31.2888 5.92795 -8.367 -8.2066 0.5982 14.375 -80.7962 35.6765 -2.1923 -43.463 -0.4931 -13.2051 86.9147 8.84175 -0.7333 -45.8593 -2.6451 23.9896 37.208 -3.22187 
